<svg width="40" height="40" viewBox="0 0 40 40" fill="none" xmlns="http://www.w3.org/2000/svg">
<rect width="40" height="40" fill="#343434"/>
<path d="M33.4975 22.0822V25.2422H32.2775V22.4022C32.2775 22.2055 32.2291 22.0272 32.1325 21.8672C32.0358 21.7039 31.9058 21.5755 31.7425 21.4822C31.5825 21.3855 31.4041 21.3372 31.2075 21.3372C31.0108 21.3372 30.8308 21.3855 30.6675 21.4822C30.5075 21.5755 30.3791 21.7039 30.2825 21.8672C30.1891 22.0272 30.1425 22.2055 30.1425 22.4022V25.2422H28.9225L28.9175 17.7422H30.1375L30.1425 20.6872C30.3125 20.5072 30.5158 20.3655 30.7525 20.2622C30.9891 20.1555 31.2441 20.1022 31.5175 20.1022C31.8808 20.1022 32.2125 20.1922 32.5125 20.3722C32.8125 20.5489 33.0508 20.7872 33.2275 21.0872C33.4075 21.3839 33.4975 21.7155 33.4975 22.0822Z" fill="white"/>
<path d="M22.8492 25.4375C22.1192 25.4375 21.4392 25.295 20.8092 25.01C20.1842 24.725 19.6392 24.3325 19.1742 23.8325C18.7092 23.3275 18.3442 22.7475 18.0792 22.0925C17.8192 21.4325 17.6892 20.7275 17.6892 19.9775C17.6892 19.1875 17.8292 18.4625 18.1092 17.8025C18.3942 17.1425 18.7817 16.57 19.2717 16.085C19.7617 15.6 20.3167 15.225 20.9367 14.96C21.5617 14.695 22.2117 14.5625 22.8867 14.5625C23.6417 14.5625 24.3742 14.74 25.0842 15.095C25.7992 15.445 26.4292 15.9875 26.9742 16.7225L25.3392 17.6C25.0042 17.19 24.6192 16.885 24.1842 16.685C23.7542 16.48 23.3142 16.3775 22.8642 16.3775C22.4242 16.3775 22.0017 16.4675 21.5967 16.6475C21.1967 16.8275 20.8392 17.0825 20.5242 17.4125C20.2142 17.7375 19.9692 18.1225 19.7892 18.5675C19.6092 19.0075 19.5192 19.49 19.5192 20.015C19.5192 20.51 19.6067 20.9775 19.7817 21.4175C19.9567 21.8525 20.1967 22.235 20.5017 22.565C20.8117 22.89 21.1692 23.145 21.5742 23.33C21.9792 23.515 22.4142 23.6075 22.8792 23.6075C23.1892 23.6075 23.4917 23.56 23.7867 23.465C24.0867 23.365 24.3667 23.2225 24.6267 23.0375C24.8917 22.8525 25.1267 22.6275 25.3317 22.3625C25.5417 22.0975 25.7167 21.7975 25.8567 21.4625H23.9442V19.865H28.0092C28.0292 20.63 27.9092 21.3475 27.6492 22.0175C27.3892 22.6875 27.0217 23.28 26.5467 23.795C26.0717 24.31 25.5192 24.7125 24.8892 25.0025C24.2592 25.2925 23.5792 25.4375 22.8492 25.4375Z" fill="white"/>
<path d="M10.3124 14.7422H12.4199L16.2374 25.2422H14.2949L13.6199 23.3822H9.11994L8.44494 25.2422H6.50244L10.3124 14.7422ZM9.78744 21.5522H12.9449L11.3624 17.2247L9.78744 21.5522Z" fill="white"/>
</svg>
